<?xml version="1.0" standalone="no"?>
<!DOCTYPE svg PUBLIC "-//W4C//DTD SVG 20010904//EN"
 "http://www.w3.org/TR/2001/REC-SVG-20010904/DTD/svg10.dtd">
<svg version="1.0" xmlns="http://www.w3.org/2000/svg"
 width="22px" height="22px" viewBox="0 0 80 80"
 preserveAspectRatio="xMidYMid meet">
<g transform="translate(0.000000,96.000000) scale(0.100000,-0.100000)"
fill="#949494" stroke="none">
<path d="M222 758 c-33 -40 -42 -104 -42 -299 0 -222 -5 -209 81 -209 51 0 52
-1 63 -53 6 -23 11 -27 43 -27 28 0 45 9 79 40 40 37 48 40 101 40 l57 0 78
78 78 79 -2 179 -3 179 -261 3 c-202 2 -264 -1 -272 -10z m483 -191 l0 -138
-47 -45 c-46 -43 -48 -44 -116 -44 -61 0 -73 -3 -93 -25 -31 -32 -55 -32 -63
0 -5 21 -12 25 -42 25 -71 0 -71 -1 -70 191 1 152 3 173 18 178 9 3 106 4 215
1 l198 -5 0 -138z"/>
<path d="M426 605 c-11 -11 -16 -34 -16 -68 0 -60 10 -80 36 -75 17 3 19 13
19 77 0 78 -10 95 -39 66z"/>
<path d="M571 611 c-8 -5 -11 -30 -9 -77 3 -66 4 -69 28 -69 24 0 25 3 28 67
2 57 0 68 -16 77 -10 5 -24 6 -31 2z"/>
</g>
</svg>
